<?xml version="1.0" encoding="UTF-8" standalone="no"?>
<!DOCTYPE svg PUBLIC "-//W3C//DTD SVG 1.1//EN" "http://www.w3.org/Graphics/SVG/1.1/DTD/svg11.dtd">
<svg width="100%" height="100%" viewBox="0 0 395 542" version="1.1" xmlns="http://www.w3.org/2000/svg" xmlns:xlink="http://www.w3.org/1999/xlink" xml:space="preserve" xmlns:serif="http://www.serif.com/" style="fill-rule:evenodd;clip-rule:evenodd;stroke-linejoin:round;stroke-miterlimit:2;">
    <g transform="matrix(1,0,0,1,-515.169,-47.0217)">
        <g transform="matrix(1,0,0,1,-744.909,0)">
            <rect x="1260.08" y="47.022" width="394.511" height="541.489" style="fill:none;"/>
            <g transform="matrix(1,0,0,1,744.909,0)">
                <path d="M651.034,384.895C632.605,383.48 614.295,381.602 596.832,374.8C573.38,365.666 564.384,343.237 569.648,320.282C572.469,307.982 578.774,297.462 587.104,288.181C602.659,270.851 618.586,253.852 633.986,236.387C642.89,226.29 650.715,215.241 659.645,205.17C677.295,185.263 699.079,174.768 726.184,178.963C744.517,181.8 759.507,191.239 771.368,205.278C779.523,214.931 786.765,225.349 794.675,235.216C807.779,251.563 820.978,267.837 834.355,283.959C843.315,294.758 851.787,305.533 855.15,319.77C861.085,344.893 849.179,367.812 824.684,376.222C803.454,383.512 781.336,386 758.191,388.127C758.866,392.661 759.508,397.496 760.313,402.304C764.276,425.96 771.599,448.708 779.026,471.429C783.917,486.395 786.958,501.647 786.257,517.503C785.008,545.738 770.19,565.762 743.126,573.98C723.122,580.054 702.681,580.218 682.617,573.977C655.133,565.428 639.97,544.239 639.934,515.256C639.913,498.032 644.54,481.772 650.377,465.772C652.707,459.386 654.965,452.974 657.808,446.146C658.541,444.727 658.722,443.737 658.902,442.747C659.724,440.042 660.546,437.338 661.868,434.2C662.616,432.523 662.864,431.28 663.113,430.037C663.804,427.235 664.496,424.432 665.767,421.145C666.412,419.489 666.479,418.318 666.545,417.146C666.897,415.642 667.249,414.137 667.989,412.213C668.35,411.225 668.323,410.658 668.294,410.091C668.328,409.281 668.361,408.472 668.901,407.185C669.648,404.82 669.888,402.931 670.128,401.042C670.251,399.941 670.374,398.841 670.992,397.162C671.541,395.122 671.595,393.661 671.649,392.2C671.61,391.637 671.57,391.074 671.971,390.101C672.024,388.77 671.638,387.848 671.251,386.926C668.759,386.749 666.267,386.573 663.228,385.976C661.797,385.673 660.914,385.79 660.03,385.907C657.932,385.745 655.833,385.583 653.25,385.017C652.188,384.707 651.611,384.801 651.034,384.895M674.073,337.643C673.369,336.797 672.665,335.951 671.932,334.532C671.686,334.162 671.441,333.792 671.196,333.423C670.794,333.797 670.392,334.172 669.064,334.685C662.339,334.924 655.613,335.163 648.6,335.412C657.899,340.555 666.589,345.362 675.318,350.189C675.318,347.319 675.318,343.745 676.085,339.914C676.501,338.799 676.916,337.684 677.332,336.568C676.416,337.067 675.501,337.566 674.073,337.643M671.497,359.783C668.226,356.387 665.533,351.866 661.564,349.833C653.498,345.702 644.988,341.774 636.205,339.891C627.169,337.952 618.227,341.266 608.799,345.678C611.792,346.307 613.564,346.729 615.354,347.046C626.638,349.042 638,350.678 649.187,353.114C656.521,354.711 663.837,357.022 668.398,364.614C662.023,363.754 655.643,362.943 649.277,362.025C635.853,360.09 622.322,358.64 609.081,355.829C604.612,354.881 600.887,350.427 596.913,346.752C596.528,345.807 596.144,344.862 595.437,343.184C596.379,337.675 600.564,335.253 605.357,333.521C605.907,333.103 606.457,332.686 607.485,331.794C608.335,331.566 609.185,331.337 610.376,331.528C610.918,331.071 611.461,330.615 612.634,329.733C629,324.334 645.932,322.234 663.431,321.574C664.63,321.249 665.829,320.925 667.868,320.293C670.248,320.205 672.628,320.116 675.32,320.476C675.89,320.285 676.46,320.093 677.792,319.591C681.864,319.455 685.936,319.319 690.002,319.892C688.774,321.956 687.545,324.019 685.924,326.743C687.732,327.9 689.61,329.047 691.43,330.279C693.978,332.005 696.483,333.794 698.112,335.775L690.187,335.775C689.924,338.538 689.713,340.763 688.801,343.289C688.832,349.181 688.862,355.074 689.071,361.821C688.89,363.544 688.71,365.266 687.848,367.257C687.86,370.159 687.871,373.061 688.087,376.651C687.938,377.098 687.789,377.545 686.96,378.211C686.93,380.46 686.899,382.71 687.022,385.777C686.813,386.847 686.604,387.917 685.826,389.201C685.833,390.451 685.84,391.702 686.004,393.78C685.75,394.849 685.495,395.918 684.789,397.146C684.826,397.754 684.863,398.361 685.093,399.75C684.829,400.495 684.565,401.24 683.785,402.179C683.796,403.101 683.807,404.023 683.899,405.737C683.698,406.487 683.496,407.237 682.744,408.221C682.487,409.812 682.231,411.402 682.066,413.806C681.242,417.201 680.417,420.596 679.085,424.081C678.997,424.703 678.91,425.325 678.958,426.652C678.602,427.767 678.246,428.882 677.191,430.008C676.612,430.246 675.612,430.375 675.518,430.739C674.144,436.049 672.867,441.384 671.621,446.726C670.983,449.458 670.454,452.216 669.984,455.702C663.948,472.895 656.751,489.817 655.349,508.241C653.543,531.979 661.302,549.576 683.485,558.431C703.735,566.515 724.349,566.078 744.266,557.913C758.88,551.922 768.603,541.02 770.44,524.312C771.898,511.057 770.879,498.045 767.321,485.3C761.474,464.354 754.201,443.747 749.491,422.561C745.292,403.677 743.75,384.202 741.53,364.599C741.316,363.72 741.101,362.842 740.584,361.183C740.421,353.111 740.258,345.04 740.507,336.664C740.512,336.276 740.517,335.887 740.523,335.498C740.039,335.586 739.556,335.674 738.146,335.868C734.428,335.776 730.71,335.685 727.005,334.859C729.551,329.641 730.432,324.778 724.388,321.14C723.929,320.864 724.068,319.595 724.599,318.485C726.059,318.632 727.518,318.778 729.296,319.422C730.53,319.283 731.765,319.144 733.918,318.802C740.271,319.15 746.623,319.499 753.165,320.288C753.777,320.192 754.389,320.095 755.91,319.86C758.933,320.211 761.956,320.563 765.17,321.335C765.771,321.256 766.372,321.177 767.833,320.944C775.883,322.073 783.933,323.203 792.113,325.028C793.375,326.997 794.674,328.121 797.004,325.175C799.898,325.868 802.854,326.37 805.675,327.288C813.967,329.986 822.595,332.165 827.989,340.598C828.503,341.406 829.016,342.215 829.896,343.759C829.796,344.833 829.697,345.907 828.968,347.148C828.654,348.12 828.34,349.092 827.767,350.701C822.8,352.865 818.011,356.172 812.832,356.982C796.113,359.597 779.25,361.299 762.438,363.309C761.935,363.369 761.373,362.939 759.895,362.382C772.006,353.298 785.369,350.769 799.273,349.443C799.858,349.142 800.442,348.84 801.794,348.162C806.496,347.341 811.197,346.521 816.457,345.602C815.278,344.353 814.639,343.677 813.969,342.429C813.329,342.223 812.689,342.017 811.294,341.675C797.03,337.252 783.313,338.745 770.236,345.773C757.091,352.837 753.727,360.982 757.472,376.094C763.659,375.008 769.892,374.074 776.055,372.802C791.33,369.65 806.729,366.929 821.781,362.918C834.363,359.565 841,349.069 841.942,336.093C843.143,319.563 835.318,307.049 825.396,295.156C809.932,276.621 794.473,258.08 779.218,239.373C769.664,227.659 761.617,214.759 749.665,205.003C729.012,188.144 700.436,187.734 680.642,205.549C672.05,213.283 665.009,222.755 657.361,231.523C641.738,249.434 626.147,267.374 610.612,285.362C603.125,294.031 595.008,302.3 588.587,311.712C579.883,324.473 580.723,341.589 589.229,352.487C594.604,359.375 602.266,363.358 610.399,364.842C630.951,368.591 651.694,371.297 673.138,374.539C673.138,370.851 673.138,368.397 673.647,365.425C673.159,363.598 672.672,361.772 671.497,359.783M767.849,337.219C769.95,336.223 772.051,335.226 774.152,334.229C774.031,333.776 773.91,333.322 773.789,332.869C767.913,333.428 762.016,333.845 756.177,334.671C755.07,334.827 753.419,336.56 753.358,337.641C753.197,340.477 753.776,343.355 754.062,346.245C758.682,343.186 762.937,340.369 767.849,337.219M768.584,359.517C768.584,359.517 768.475,359.58 768.584,359.517Z" style="fill:white;fill-rule:nonzero;"/>
                <path d="M669.95,401.336C669.888,402.931 669.648,404.82 669.147,406.858C669.182,405.215 669.477,403.422 669.95,401.336Z" style="fill:white;fill-rule:nonzero;"/>
                <path d="M671.409,392.469C671.595,393.661 671.541,395.122 671.196,396.796C670.993,395.584 671.081,394.161 671.409,392.469Z" style="fill:white;fill-rule:nonzero;"/>
                <path d="M662.921,430.283C662.864,431.28 662.616,432.523 662.123,433.887C662.161,432.848 662.445,431.688 662.921,430.283Z" style="fill:white;fill-rule:nonzero;"/>
                <path d="M660.256,386.03C660.914,385.79 661.797,385.673 662.854,385.812C662.179,386.097 661.331,386.125 660.256,386.03Z" style="fill:white;fill-rule:nonzero;"/>
                <path d="M671.407,387.211C671.638,387.848 672.024,388.77 672.145,389.87C671.774,389.197 671.668,388.347 671.407,387.211Z" style="fill:white;fill-rule:nonzero;"/>
                <path d="M666.306,417.392C666.479,418.318 666.412,419.489 666.029,420.837C665.83,419.889 665.948,418.763 666.306,417.392Z" style="fill:white;fill-rule:nonzero;"/>
                <path d="M658.635,442.906C658.722,443.737 658.541,444.727 658.086,445.864C657.997,445.028 658.183,444.047 658.635,442.906Z" style="fill:white;fill-rule:nonzero;"/>
                <path d="M668.124,410.228C668.323,410.658 668.35,411.225 668.151,411.911C667.934,411.475 667.943,410.92 668.124,410.228Z" style="fill:white;fill-rule:nonzero;"/>
                <path d="M651.201,385.03C651.611,384.801 652.188,384.707 652.898,384.846C652.477,385.108 651.923,385.136 651.201,385.03Z" style="fill:white;fill-rule:nonzero;"/>
                <path d="M726.998,335.226C717.969,335.649 708.946,335.704 699.465,335.658C696.483,333.794 693.978,332.005 691.43,330.279C689.61,329.047 687.732,327.9 685.924,326.743C687.545,324.019 688.774,321.956 690.005,319.538C701.063,318.944 712.12,318.704 723.553,318.626C724.068,319.595 723.929,320.864 724.388,321.14C730.432,324.778 729.551,329.641 726.998,335.226Z" style="fill:white;fill-rule:nonzero;"/>
                <path d="M677.541,430.003C675.356,438.128 672.821,446.258 670.081,454.675C670.454,452.216 670.983,449.458 671.621,446.726C672.867,441.384 674.144,436.049 675.518,430.739C675.612,430.375 676.612,430.246 677.541,430.003Z" style="fill:white;fill-rule:nonzero;"/>
                <path d="M689.151,343.139C689.427,348.744 689.353,354.499 689.086,360.611C688.862,355.074 688.832,349.181 689.151,343.139Z" style="fill:white;fill-rule:nonzero;"/>
                <path d="M688.189,367.123C688.424,369.744 688.319,372.499 688.048,375.609C687.871,373.061 687.86,370.159 688.189,367.123Z" style="fill:white;fill-rule:nonzero;"/>
                <path d="M668.632,363.868C670.169,363.384 671.394,363.256 672.619,363.129C672.467,362.32 672.315,361.511 672.174,360.324C672.672,361.772 673.159,363.598 673.392,365.684C671.532,365.37 669.926,364.797 668.632,363.868Z" style="fill:white;fill-rule:nonzero;"/>
                <path d="M687.3,378.102C687.51,380.093 687.379,382.195 687.059,384.628C686.899,382.71 686.93,380.46 687.3,378.102Z" style="fill:white;fill-rule:nonzero;"/>
                <path d="M675.701,340.042C675.072,339.621 674.827,339.071 674.584,338.294C675.501,337.566 676.416,337.067 677.332,336.568C676.916,337.684 676.501,338.799 675.701,340.042Z" style="fill:white;fill-rule:nonzero;"/>
                <path d="M792.048,324.68C793.196,324.519 794.407,324.706 795.885,325.05C794.674,328.121 793.375,326.997 792.048,324.68Z" style="fill:white;fill-rule:nonzero;"/>
                <path d="M683.019,408.104C683.017,409.502 682.738,411.018 682.217,412.763C682.231,411.402 682.487,409.812 683.019,408.104Z" style="fill:white;fill-rule:nonzero;"/>
                <path d="M686.111,389.094C686.334,390.114 686.273,391.242 686.029,392.661C685.84,391.702 685.833,390.451 686.111,389.094Z" style="fill:white;fill-rule:nonzero;"/>
                <path d="M663.229,321.332C664.142,320.848 665.256,320.605 666.699,320.481C665.829,320.925 664.63,321.249 663.229,321.332Z" style="fill:white;fill-rule:nonzero;"/>
                <path d="M729.137,319.174C730.107,318.862 731.237,318.799 732.683,318.87C731.765,319.144 730.53,319.283 729.137,319.174Z" style="fill:white;fill-rule:nonzero;"/>
                <path d="M684.043,402.082C684.278,402.812 684.255,403.639 684.025,404.705C683.807,404.023 683.796,403.101 684.043,402.082Z" style="fill:white;fill-rule:nonzero;"/>
                <path d="M741.283,364.793C740.912,364.14 740.789,363.292 740.776,362.204C741.101,362.842 741.316,363.72 741.283,364.793Z" style="fill:white;fill-rule:nonzero;"/>
                <path d="M829.283,347.064C829.275,347.944 828.953,348.906 828.328,349.966C828.34,349.092 828.654,348.12 829.283,347.064Z" style="fill:white;fill-rule:nonzero;"/>
                <path d="M596.867,347.164C596.4,346.538 595.977,345.5 595.657,344.189C596.144,344.862 596.528,345.807 596.867,347.164Z" style="fill:white;fill-rule:nonzero;"/>
                <path d="M828.007,340.271C828.553,340.768 829.081,341.592 829.569,342.72C829.016,342.215 828.503,341.406 828.007,340.271Z" style="fill:white;fill-rule:nonzero;"/>
                <path d="M685.015,397.066C685.235,397.506 685.229,398.026 685.062,398.757C684.863,398.361 684.826,397.754 685.015,397.066Z" style="fill:white;fill-rule:nonzero;"/>
                <path d="M679.339,424.036C679.471,424.512 679.349,425.034 679.024,425.751C678.91,425.325 678.997,424.703 679.339,424.036Z" style="fill:white;fill-rule:nonzero;"/>
                <path d="M671.947,334.819C671.508,335.028 671.056,334.952 670.297,334.711C670.392,334.172 670.794,333.797 671.196,333.423C671.441,333.792 671.686,334.162 671.947,334.819Z" style="fill:white;fill-rule:nonzero;"/>
                <path d="M675.164,320.252C675.562,319.902 676.115,319.777 676.849,319.777C676.46,320.093 675.89,320.285 675.164,320.252Z" style="fill:white;fill-rule:nonzero;"/>
                <path d="M753.071,320.068C753.498,319.796 754.019,319.745 754.771,319.846C754.389,320.095 753.777,320.192 753.071,320.068Z" style="fill:white;fill-rule:nonzero;"/>
                <path d="M765.074,321.124C765.5,320.868 766.021,320.823 766.757,320.938C766.372,321.177 765.771,321.256 765.074,321.124Z" style="fill:white;fill-rule:nonzero;"/>
                <path d="M610.206,331.318C610.499,330.775 610.962,330.441 611.714,330.133C611.461,330.615 610.918,331.071 610.206,331.318Z" style="fill:white;fill-rule:nonzero;"/>
                <path d="M605.196,333.312C605.505,332.82 605.976,332.537 606.727,332.261C606.457,332.686 605.907,333.103 605.196,333.312Z" style="fill:white;fill-rule:nonzero;"/>
                <path d="M740.301,336.816C739.854,336.711 739.614,336.454 739.223,335.979C739.556,335.674 740.039,335.586 740.523,335.498C740.517,335.887 740.512,336.276 740.301,336.816Z" style="fill:white;fill-rule:nonzero;"/>
                <path d="M813.984,342.714C813.466,342.768 812.932,342.535 812.224,342.057C812.689,342.017 813.329,342.223 813.984,342.714Z" style="fill:white;fill-rule:nonzero;"/>
                <path d="M799.138,349.226C799.501,348.811 799.998,348.614 800.761,348.477C800.442,348.84 799.858,349.142 799.138,349.226Z" style="fill:white;fill-rule:nonzero;"/>
                <path d="M768.529,359.549C768.475,359.58 768.584,359.517 768.529,359.549Z" style="fill:white;fill-rule:nonzero;"/>
            </g>
        </g>
    </g>
</svg>
