<?xml version="1.0" encoding="UTF-8" standalone="no"?>
<!DOCTYPE svg PUBLIC "-//W3C//DTD SVG 1.1//EN" "http://www.w3.org/Graphics/SVG/1.1/DTD/svg11.dtd">
<svg width="100%" height="100%" viewBox="0 0 395 542" version="1.1" xmlns="http://www.w3.org/2000/svg" xmlns:xlink="http://www.w3.org/1999/xlink" xml:space="preserve" xmlns:serif="http://www.serif.com/" style="fill-rule:evenodd;clip-rule:evenodd;stroke-linejoin:round;stroke-miterlimit:2;">
    <g transform="matrix(1,0,0,1,-855.845,-47.0217)">
        <g transform="matrix(1,0,0,1,-404.232,0)">
            <rect x="1260.08" y="47.022" width="394.511" height="541.489" style="fill:none;"/>
            <g transform="matrix(1,0,0,1,404.232,0)">
                <path d="M894.865,328.135C881.164,306.904 883.557,285.838 894.367,264.848C901.942,250.141 913.899,238.941 924.861,226.859C945.201,204.439 964.83,181.374 984.75,158.574C995.755,145.978 1007.35,134.215 1023.07,127.278C1053.36,113.91 1087.86,119.9 1112.01,142.672C1126.53,156.367 1137.38,172.977 1149.76,188.398C1164.52,206.789 1180.18,224.464 1195.63,242.295C1207.55,256.054 1217.53,270.617 1220.18,289.301C1223.85,315.184 1210.83,337.698 1186.4,347.151C1166.96,354.675 1146.5,357.316 1126.06,360.101C1119.65,360.975 1113.2,361.611 1105.92,362.454C1107.63,371.994 1108.62,381.773 1111.19,391.114C1117.98,415.744 1125.46,440.183 1132.67,464.698C1137.54,481.257 1140.67,498.051 1139.28,515.415C1137.12,542.086 1124.59,561.947 1099.57,572.249C1068.95,584.855 1037.66,584.834 1007.3,571.833C982.434,561.186 970.826,540.379 968.952,513.853C967.6,494.713 972.409,476.617 978.227,458.64C986.347,433.546 994.359,408.413 1002,383.169C1004.1,376.223 1004.7,368.823 1006.1,361.008C999.166,360.332 992.619,359.759 986.088,359.043C964.75,356.704 943.324,354.817 922.799,347.888C911.659,344.127 902.1,338.062 894.865,328.135M933.542,312.067C933.205,312.483 932.868,312.898 932.531,313.313C933.033,313.181 933.535,313.05 934.828,312.915C947.694,315.289 960.58,317.559 973.419,320.07C984.345,322.207 995.233,324.584 1002.99,334.403C1002.97,334.671 1002.95,334.939 1002.07,335.339C989.403,333.587 976.7,332.046 964.075,330.021C952.957,328.239 941.845,326.258 930.903,323.64C927.288,322.775 924.213,319.653 920.912,316.806C920.253,316.204 919.595,315.603 918.348,314.44C916.443,309.062 918.772,305.189 923.581,301.962C925.689,300.557 927.797,299.153 930.34,297.195C934.559,295.796 938.779,294.397 943.299,293.441C943.869,293.065 944.438,292.689 945.714,291.954C962.098,289.305 978.393,285.592 994.884,284.214C1037.91,280.617 1081.02,280.57 1124.03,284.992C1140.24,286.659 1156.45,288.902 1171.66,295.162C1176.63,297.206 1181.57,300.03 1185.56,303.575C1191.62,308.952 1190.77,316.202 1183.73,320.026C1168.29,328.419 1151.11,329.368 1134.52,330.047C1134.46,329.595 1134.41,329.143 1134.35,328.69C1134.08,328.77 1133.55,328.887 1133.56,328.924C1133.65,329.508 1133.8,330.083 1133.25,331.131C1125.53,331.943 1117.82,332.755 1110.28,332.904C1110.86,331.731 1111.44,330.558 1112.55,328.888C1122.54,322.803 1133.43,319.375 1145.36,318.483C1147.91,317.86 1150.47,317.237 1153.79,316.222C1159.81,315.083 1165.84,313.945 1173.3,312.536C1170.65,311.17 1169.54,310.493 1168.35,309.994C1148.86,301.805 1130.83,305.84 1113.93,317.033C1103.37,324.032 1100.36,335.956 1105.33,348.272C1112.35,347.033 1119.36,345.722 1126.4,344.57C1133.63,343.386 1140.97,342.755 1148.1,341.167C1158.62,338.826 1169.22,336.524 1179.38,333.007C1199.86,325.911 1208.85,306.462 1202.82,285.499C1199.48,273.926 1192.77,264.647 1185.3,255.67C1165.17,231.499 1145.12,207.267 1124.88,183.198C1116.77,173.55 1108.87,163.57 1099.71,154.992C1089.14,145.108 1076.49,138.317 1061.56,137.078C1037.75,135.101 1019.01,145.088 1004.36,162.816C979.984,192.312 955.332,221.528 928.577,248.914C919.837,257.86 911.363,267.083 906.512,278.844C900.558,293.28 900.471,307.602 910.11,320.521C916.779,329.459 926.945,333.712 937.505,335.591C954.838,338.676 972.361,340.702 989.817,343.076C995.486,343.848 1001.2,344.314 1006.99,344.931C1006.99,341.591 1006.99,338.804 1006.97,335.374C1006.94,335.16 1006.92,334.947 1007.07,334.129C1006.45,332.202 1006.23,330.011 1005.15,328.393C999.954,320.6 992.162,315.964 983.785,312.585C974.337,308.775 965.069,303.229 954.141,306.192C947.436,308.01 940.802,310.089 933.542,312.067M1111.08,452.549C1092.87,404.113 1085.2,353.756 1084.01,301.879L1026.23,301.879C1026.23,304.021 1026.24,305.821 1026.22,307.621C1026.01,338.823 1024.07,369.919 1015.41,400.03C1008.75,423.164 1000.4,445.805 993.108,468.76C987.941,485.015 984.532,501.535 986.872,518.823C989.121,535.448 997.459,547.829 1012.41,555.119C1038.2,567.694 1064.81,567.978 1091.19,557.449C1110.27,549.834 1120.91,535.371 1122.11,514.284C1123.31,493.045 1118.05,473.066 1111.08,452.549M1008.91,305.002C1006.76,303.382 1004.7,300.537 1002.44,300.364C994.8,299.779 987.082,300.141 979.393,300.141C979.469,300.512 979.544,300.882 979.62,301.253C989.567,307.013 999.514,312.773 1010.14,318.924C1009.79,314.252 1009.47,310.016 1008.91,305.002M1111.8,305.171C1116.27,303.202 1120.74,301.233 1125.2,299.264C1125.16,298.814 1125.12,298.364 1125.08,297.914C1116.56,298.671 1108.05,299.428 1099.21,300.213C1099.68,305.544 1100.03,309.545 1100.43,314.052C1104.45,310.891 1107.82,308.238 1111.8,305.171Z" style="fill:white;fill-rule:nonzero;"/>
                <path d="M923.19,301.941C924.932,300.565 927.064,299.21 929.551,297.802C927.797,299.153 925.689,300.557 923.19,301.941Z" style="fill:white;fill-rule:nonzero;"/>
                <path d="M1145.18,318.245C1147.42,317.52 1149.85,317.032 1152.65,316.579C1150.47,317.237 1147.91,317.86 1145.18,318.245Z" style="fill:white;fill-rule:nonzero;"/>
                <path d="M1110.19,333.235C1107.81,334.2 1107.07,333.529 1108.62,331.522C1109.29,330.655 1110.44,330.163 1111.7,329.443C1111.44,330.558 1110.86,331.731 1110.19,333.235Z" style="fill:white;fill-rule:nonzero;"/>
                <path d="M1003.02,334C1004.11,333.969 1005.16,334.341 1006.56,334.723C1006.92,334.947 1006.94,335.16 1006.98,335.696C1005.83,335.889 1004.66,335.76 1003.21,335.419C1002.95,334.939 1002.97,334.671 1003.02,334Z" style="fill:white;fill-rule:nonzero;"/>
                <path d="M933.839,312.059C934.136,312.051 934.085,312.484 934.061,312.701C933.535,313.05 933.033,313.181 932.531,313.313C932.868,312.898 933.205,312.483 933.839,312.059Z" style="fill:white;fill-rule:nonzero;"/>
                <path d="M920.901,317.184C920.258,316.936 919.626,316.309 918.965,315.342C919.595,315.603 920.253,316.204 920.901,317.184Z" style="fill:white;fill-rule:nonzero;"/>
                <path d="M1134.29,330.351C1134.07,330.655 1133.96,330.573 1133.95,330.616C1133.8,330.083 1133.65,329.508 1133.56,328.924C1133.55,328.887 1134.08,328.77 1134.35,328.69C1134.41,329.143 1134.46,329.595 1134.29,330.351Z" style="fill:white;fill-rule:nonzero;"/>
                <path d="M943.149,293.219C943.482,292.738 943.966,292.479 944.729,292.267C944.438,292.689 943.869,293.065 943.149,293.219Z" style="fill:white;fill-rule:nonzero;"/>
            </g>
        </g>
    </g>
</svg>
