<?xml version="1.0" encoding="UTF-8" standalone="no"?>
<!DOCTYPE svg PUBLIC "-//W3C//DTD SVG 1.1//EN" "http://www.w3.org/Graphics/SVG/1.1/DTD/svg11.dtd">
<svg width="100%" height="100%" viewBox="0 0 453 591" version="1.1" xmlns="http://www.w3.org/2000/svg" xmlns:xlink="http://www.w3.org/1999/xlink" xml:space="preserve" xmlns:serif="http://www.serif.com/" style="fill-rule:evenodd;clip-rule:evenodd;stroke-linejoin:round;stroke-miterlimit:2;">
    <g transform="matrix(1,0,0,1,-1232.48,-28)">
        <g transform="matrix(1.07092,0,0,1,-102.958,9)">
            <rect x="1247" y="19" width="423" height="591" style="fill:none;"/>
            <clipPath id="_clip1">
                <rect x="1247" y="19" width="423" height="591"/>
            </clipPath>
            <g clip-path="url(#_clip1)">
                <g transform="matrix(0.933775,0,0,1,96.1392,-9)">
                    <path d="M1533.01,298.794C1554.29,296.215 1575.59,293.848 1596.81,290.899C1601.78,290.21 1606.56,287.764 1611.27,285.75C1619.83,282.087 1618.97,271.24 1613.88,266.456C1607.45,260.41 1599.78,256.657 1591.46,253.905C1560.59,243.693 1528.54,241.527 1496.44,240.188C1462.32,238.766 1428.19,239.035 1394.14,242.13C1367.45,244.556 1340.79,247.337 1315.53,257.146C1310.94,258.925 1306.6,261.645 1302.63,264.592C1296,269.516 1295.98,276.318 1302.1,281.927C1309.97,289.145 1319.95,291.566 1329.97,293.044C1344.11,295.13 1358.41,296.104 1372.6,297.841C1381.64,298.949 1390.62,300.578 1400.3,301.185C1399.16,300.043 1398.09,298.823 1396.88,297.77C1388.42,290.443 1378.23,286.989 1367.5,284.967C1351.19,281.895 1334.83,279.047 1318.5,276.09C1318.07,276.011 1317.66,275.779 1316.38,275.29C1334.22,267.714 1351.25,263.29 1369.4,272.247C1380.89,277.912 1392.87,282.607 1401.66,293.094C1401.96,293.352 1401.93,293.177 1401.93,293.177C1402.45,294.333 1402.96,295.488 1403.76,297.028C1404.04,297.412 1403.98,297.275 1403.98,297.275C1403.98,300.87 1403.98,304.465 1403.87,308.76C1403.82,309.986 1403.89,310.513 1403.96,311.039C1402.73,311.779 1401.42,313.281 1400.29,313.148C1373.56,309.96 1346.5,309.068 1320.3,302.01C1310.74,299.436 1301.48,296.115 1293.85,289.724C1280.1,278.209 1278.73,262.667 1281.43,246.458C1283.93,231.455 1292.79,219.949 1303.12,209.184C1323.14,188.32 1343.09,167.361 1362.37,145.82C1376.21,130.354 1388.83,113.788 1402.18,97.878C1418.74,78.147 1439.15,66.125 1465.79,67.216C1485.29,68.014 1500.94,77.183 1515.15,89.698C1528.27,101.25 1538.84,114.982 1548.85,129.108C1568.53,156.892 1591.01,182.343 1613.34,207.953C1621.33,217.129 1628.89,226.639 1632.42,238.656C1636.15,251.329 1636.19,264.075 1632.13,276.522C1627.94,289.376 1617.28,296.286 1605.35,299.955C1590.47,304.528 1575.09,307.568 1559.8,310.661C1546.45,313.363 1532.92,315.22 1519.46,317.453C1515.39,300.315 1516.06,288.516 1530.39,279.528C1545.04,270.335 1560.83,265.025 1578.16,267.118C1584.69,267.908 1590.92,271.373 1597.23,273.781C1597.58,273.916 1597.37,275.535 1596.99,276.557C1596.32,276.68 1596.19,276.811 1596.15,277.043C1586.37,278.409 1576.59,279.776 1566.15,281.268C1565,281.623 1564.51,281.852 1564.02,282.082C1563.56,282.088 1563.09,282.095 1562.06,282.285C1561,282.661 1560.51,282.854 1560.01,283.046C1558.25,283.355 1556.49,283.663 1554.09,284.087C1552.97,284.474 1552.49,284.746 1552.01,285.018C1548.84,285.821 1545.68,286.625 1541.88,287.646C1539.49,288.583 1537.75,289.302 1536.01,290.022C1531.85,292.591 1527.7,295.16 1523.21,298.31C1523.58,299.198 1524.29,299.505 1525.01,299.813C1526.77,299.632 1528.53,299.452 1530.99,299.191C1532.12,299.005 1532.57,298.899 1533.01,298.794Z" style="fill:rgb(15,15,45);fill-rule:nonzero;"/>
                    <path d="M1535.29,467.91C1536.74,478.686 1538.64,489.033 1539.26,499.455C1541.14,531.184 1526.5,552.872 1496.39,562.895C1472.36,570.897 1448,571.204 1423.74,563.797C1412.94,560.502 1403.41,554.667 1395.08,547.088C1383.32,536.399 1379.48,522.247 1378.67,507.072C1377.78,490.216 1381.62,474.012 1386.79,458.161C1394.26,435.28 1402.29,412.585 1409.8,389.718C1419.15,361.215 1422.53,331.632 1424.81,301.91C1425.8,289.015 1426.16,276.072 1426.82,262.793L1494.66,262.793C1494.75,264.534 1494.9,266.291 1494.9,268.049C1494.95,299.784 1499.69,330.983 1505.15,362.149C1510.31,391.625 1520.53,419.568 1529.75,447.841C1531.85,454.301 1533.37,460.952 1535.29,467.91Z" style="fill:rgb(15,15,45);fill-rule:nonzero;"/>
                    <path d="M1405.11,283.712C1394.81,274.988 1384.21,266.762 1370.42,263.819C1370.55,263.086 1370.69,262.353 1370.82,261.621C1380.57,261.422 1390.32,261.029 1400.06,261.225C1401.63,261.256 1403.71,263.644 1404.57,265.419C1407.37,271.181 1408.32,277.321 1406.26,283.704C1405.54,283.567 1405.33,283.562 1405.11,283.712Z" style="fill:rgb(15,15,45);fill-rule:nonzero;"/>
                    <path d="M1533.43,263.377C1526.75,267.634 1520.4,271.708 1513.83,275.919C1513.53,271.498 1513.2,266.776 1512.85,261.635C1521.29,259.723 1529.44,258.225 1537.74,259.401C1537.84,259.95 1537.93,260.5 1538.03,261.049C1536.6,261.764 1535.18,262.478 1533.43,263.377Z" style="fill:rgb(15,15,45);fill-rule:nonzero;"/>
                </g>
                <g transform="matrix(0.933775,0,0,1,96.1392,-9)">
                    <path d="M1098,646L1,646L1,1L1697,1L1697,646L1098,646M657.255,446.573C654.965,452.974 652.707,459.386 650.377,465.772C644.54,481.772 639.913,498.032 639.934,515.256C639.97,544.239 655.133,565.428 682.617,573.977C702.681,580.218 723.122,580.054 743.126,573.98C770.19,565.762 785.008,545.738 786.257,517.503C786.958,501.647 783.917,486.395 779.026,471.429C771.599,448.708 764.276,425.96 760.313,402.304C759.508,397.496 758.866,392.661 758.191,388.127C781.336,386 803.454,383.512 824.684,376.222C849.179,367.812 861.085,344.893 855.15,319.77C851.787,305.533 843.315,294.758 834.355,283.959C820.978,267.837 807.779,251.563 794.675,235.216C786.765,225.349 779.523,214.931 771.368,205.278C759.507,191.239 744.517,181.8 726.184,178.963C699.079,174.768 677.295,185.263 659.645,205.17C650.715,215.241 642.89,226.29 633.986,236.387C618.586,253.852 602.659,270.851 587.104,288.181C578.774,297.462 572.469,307.982 569.648,320.282C564.384,343.237 573.38,365.666 596.832,374.8C614.295,381.602 632.605,383.48 651.369,385.165C651.923,385.136 652.477,385.108 653.735,385.421C655.833,385.583 657.932,385.745 660.483,386.154C661.331,386.125 662.179,386.097 663.776,386.396C666.267,386.573 668.759,386.749 671.563,387.496C671.668,388.347 671.774,389.197 671.531,390.511C671.57,391.074 671.61,391.637 671.169,392.738C671.081,394.161 670.993,395.584 670.497,397.741C670.374,398.841 670.251,399.941 669.773,401.63C669.477,403.422 669.182,405.215 668.394,407.662C668.361,408.472 668.328,409.281 667.953,410.365C667.943,410.92 667.934,411.475 667.6,412.633C667.249,414.137 666.897,415.642 666.067,417.638C665.948,418.763 665.83,419.889 665.187,421.63C664.496,424.432 663.804,427.235 662.729,430.528C662.445,431.688 662.161,432.848 661.367,434.634C660.546,437.338 659.724,440.042 658.368,443.066C658.183,444.047 657.997,445.028 657.255,446.573M1305.58,316.881C1336.82,326.796 1369.41,328.616 1402.93,332.313C1399.21,348.462 1396.51,364.049 1391.96,379.079C1384.85,402.577 1376.62,425.741 1368.63,448.963C1361.92,468.441 1357.12,488.245 1358.61,508.991C1360.62,536.927 1372.24,559.339 1397.1,573.897C1410.42,581.693 1424.78,586.103 1440.02,587.532C1464.5,589.826 1488.61,588.627 1511.38,578.05C1538.99,565.226 1555.72,544.172 1558.93,513.472C1560.91,494.546 1558.58,475.839 1553.23,457.68C1543.63,425.051 1531.49,393.157 1525.04,359.621C1523.38,351.029 1521.87,342.41 1520.51,334.988C1541.69,331.576 1562.03,328.507 1582.3,324.964C1597.79,322.254 1612.77,317.471 1626.16,309.124C1652.11,292.939 1659.99,264.959 1651.05,234.651C1645.66,216.38 1634.2,201.588 1621.65,187.61C1599.17,162.561 1578.16,136.361 1558.37,109.108C1545.87,91.898 1532.86,74.714 1514.34,63.259C1482.32,43.465 1449.48,41.115 1416.02,59.824C1398.94,69.373 1386.52,83.941 1374.17,98.612C1352.1,124.825 1331.07,151.944 1306.36,175.849C1293.2,188.576 1280.32,201.51 1271.15,217.676C1261.76,234.243 1257.55,251.84 1261.64,270.476C1266.84,294.082 1282,309.13 1305.58,316.881M895.053,328.438C902.1,338.062 911.659,344.127 922.799,347.888C943.324,354.817 964.75,356.704 986.088,359.043C992.619,359.759 999.166,360.332 1006.1,361.008C1004.7,368.823 1004.1,376.223 1002,383.169C994.359,408.413 986.347,433.546 978.227,458.64C972.409,476.617 967.6,494.713 968.952,513.853C970.826,540.379 982.434,561.186 1007.3,571.833C1037.66,584.834 1068.95,584.855 1099.57,572.249C1124.59,561.947 1137.12,542.086 1139.28,515.415C1140.67,498.051 1137.54,481.257 1132.67,464.698C1125.46,440.183 1117.98,415.744 1111.19,391.114C1108.62,381.773 1107.63,371.994 1105.92,362.454C1113.2,361.611 1119.65,360.975 1126.06,360.101C1146.5,357.316 1166.96,354.675 1186.4,347.151C1210.83,337.698 1223.85,315.184 1220.18,289.301C1217.53,270.617 1207.55,256.054 1195.63,242.295C1180.18,224.464 1164.52,206.789 1149.76,188.398C1137.38,172.977 1126.53,156.367 1112.01,142.672C1087.86,119.9 1053.36,113.91 1023.07,127.278C1007.35,134.215 995.755,145.978 984.75,158.574C964.83,181.374 945.201,204.439 924.861,226.859C913.899,238.941 901.942,250.141 894.367,264.848C883.557,285.838 881.164,306.904 895.053,328.438M405.267,482.063C399.824,465.841 395.426,449.38 393.434,432.239C398.134,431.821 402.439,431.578 406.705,431.032C421.902,429.085 437.222,427.287 450.964,419.877C461.544,414.173 468.063,405.302 469.108,392.933C470.439,377.178 463.586,364.776 453.86,353.088C439.823,336.221 426.621,318.66 412.626,301.756C406.721,294.624 400.367,287.545 393.057,281.96C376.47,269.283 358.163,266.747 338.585,275.265C325.535,280.943 316.942,291.526 307.962,301.767C293.296,318.492 278.401,335.026 264.141,352.09C258.569,358.758 253.294,366.146 249.9,374.07C241.196,394.393 250.384,414.619 271.244,421.912C279.502,424.8 288.249,426.499 296.902,427.995C306.507,429.656 316.259,430.468 326.222,431.684C326.024,434.23 326.197,436.624 325.609,438.814C321.786,453.048 318.362,467.425 313.712,481.391C308.519,496.989 302.095,512.183 302.187,529.02C302.265,543.341 306.421,555.951 317.914,565.253C325.737,571.584 334.936,574.898 344.788,576.464C359.549,578.809 374.018,577.694 387.887,571.947C406.216,564.351 415.266,549.196 415.276,527.441C415.283,511.816 409.992,497.428 405.267,482.063M119.238,577.448C122.852,576.923 126.548,576.721 130.065,575.821C150.668,570.55 161.184,556.608 158.974,535.5C157.88,525.048 154.797,514.703 151.709,504.586C147.742,491.589 143.773,478.66 142.25,464.685C144.649,464.497 146.651,464.545 148.563,464.156C159.922,461.844 171.568,460.377 182.526,456.811C196.082,452.4 202.68,439.745 199.486,425.82C198.15,419.996 195.619,413.94 192.007,409.236C178.936,392.216 165.513,375.438 151.596,359.103C130.285,334.089 100.042,336.454 82.807,358.373C74.607,368.801 65.697,378.684 56.88,388.611C51.034,395.193 44.659,401.302 38.738,407.82C24.718,423.252 25.849,447.5 46.794,456.539C50.274,458.041 53.936,459.385 57.648,460.038C68.209,461.897 78.84,463.361 90.484,465.139C87.606,475.858 84.868,486.591 81.828,497.238C78.507,508.869 73.994,520.239 71.636,532.049C67.862,550.95 75.598,566.704 92.024,572.951C100.187,576.056 109.515,576.1 119.238,577.448Z" style="fill:rgb(15,15,45);fill-rule:nonzero;"/>
                </g>
            </g>
        </g>
    </g>
</svg>
