<?xml version="1.0" encoding="UTF-8" standalone="no"?>
<!DOCTYPE svg PUBLIC "-//W3C//DTD SVG 1.1//EN" "http://www.w3.org/Graphics/SVG/1.1/DTD/svg11.dtd">
<svg width="100%" height="100%" viewBox="0 0 395 542" version="1.1" xmlns="http://www.w3.org/2000/svg" xmlns:xlink="http://www.w3.org/1999/xlink" xml:space="preserve" xmlns:serif="http://www.serif.com/" style="fill-rule:evenodd;clip-rule:evenodd;stroke-linejoin:round;stroke-miterlimit:2;">
    <g transform="matrix(1,0,0,1,-1260.08,-47.0217)">
        <rect x="1260.08" y="47.022" width="394.511" height="541.489" style="fill:none;"/>
        <g>
            <path d="M1305.21,316.74C1282,309.13 1266.84,294.082 1261.64,270.476C1257.55,251.84 1261.76,234.243 1271.15,217.676C1280.32,201.51 1293.2,188.576 1306.36,175.849C1331.07,151.944 1352.1,124.825 1374.17,98.612C1386.52,83.941 1398.94,69.373 1416.02,59.824C1449.48,41.115 1482.32,43.465 1514.34,63.259C1532.86,74.714 1545.87,91.898 1558.37,109.108C1578.16,136.361 1599.17,162.561 1621.65,187.61C1634.2,201.588 1645.66,216.38 1651.05,234.651C1659.99,264.959 1652.11,292.939 1626.16,309.124C1612.77,317.471 1597.79,322.254 1582.3,324.964C1562.03,328.507 1541.69,331.576 1520.51,334.988C1521.87,342.41 1523.38,351.029 1525.04,359.621C1531.49,393.157 1543.63,425.051 1553.23,457.68C1558.58,475.839 1560.91,494.546 1558.93,513.472C1555.72,544.172 1538.99,565.226 1511.38,578.05C1488.61,588.627 1464.5,589.826 1440.02,587.532C1424.78,586.103 1410.42,581.693 1397.1,573.897C1372.24,559.339 1360.62,536.927 1358.61,508.991C1357.12,488.245 1361.92,468.441 1368.63,448.963C1376.62,425.741 1384.85,402.577 1391.96,379.079C1396.51,364.049 1399.21,348.462 1402.93,332.313C1369.41,328.616 1336.82,326.796 1305.21,316.74M1406.76,283.683C1408.32,277.321 1407.37,271.181 1404.57,265.419C1403.71,263.644 1401.63,261.256 1400.06,261.225C1390.32,261.029 1380.57,261.422 1370.82,261.621C1370.69,262.353 1370.55,263.086 1370.42,263.819C1384.21,266.762 1394.81,274.988 1405.31,283.961L1405.61,284.075C1405.61,284.075 1405.92,284.029 1406.76,283.683M1404.38,310.834C1404.27,310.227 1404.17,309.62 1403.97,308.06C1403.98,304.465 1403.98,300.87 1403.93,297.34C1403.93,297.34 1403.9,297.495 1403.47,296.643C1402.96,295.488 1402.45,294.333 1401.89,293.251C1401.89,293.251 1401.88,293.412 1401.36,292.836C1392.87,282.607 1380.89,277.912 1369.4,272.247C1351.25,263.29 1334.22,267.714 1316.38,275.29C1317.66,275.779 1318.07,276.011 1318.5,276.09C1334.83,279.047 1351.19,281.895 1367.5,284.967C1378.23,286.989 1388.42,290.443 1396.88,297.77C1398.09,298.823 1399.16,300.043 1400.3,301.185C1390.62,300.578 1381.64,298.949 1372.6,297.841C1358.41,296.104 1344.11,295.13 1329.97,293.044C1319.95,291.566 1309.97,289.145 1302.1,281.927C1295.98,276.318 1296,269.516 1302.63,264.592C1306.6,261.645 1310.94,258.925 1315.53,257.146C1340.79,247.337 1367.45,244.556 1394.14,242.13C1428.19,239.035 1462.32,238.766 1496.44,240.188C1528.54,241.527 1560.59,243.693 1591.46,253.905C1599.78,256.657 1607.45,260.41 1613.88,266.456C1618.97,271.24 1619.83,282.087 1611.27,285.75C1606.56,287.764 1601.78,290.21 1596.81,290.899C1575.59,293.848 1554.29,296.215 1533.01,298.096C1532.31,297.27 1531.6,296.445 1530.89,295.62C1530.93,296.738 1530.96,297.856 1530.29,299.271C1528.53,299.452 1526.77,299.632 1524.29,298.899C1523.94,298.744 1523.59,298.59 1523.55,297.729C1527.7,295.16 1531.85,292.591 1536.45,290.515C1538.29,289.649 1540.13,288.783 1542.52,287.428C1545.68,286.625 1548.84,285.821 1552.31,285.462C1552.88,285.067 1553.45,284.673 1554.73,283.972C1556.49,283.663 1558.25,283.355 1560.3,283.472C1560.88,283.146 1561.45,282.821 1562.62,282.101C1563.09,282.095 1563.56,282.088 1564.32,282.501C1564.89,282.155 1565.46,281.809 1566.81,281.142C1576.59,279.776 1586.37,278.409 1596.36,277.064C1596.36,277.064 1596.75,276.881 1597.42,276.463C1597.37,275.535 1597.58,273.916 1597.23,273.781C1590.92,271.373 1584.69,267.908 1578.16,267.118C1560.83,265.025 1545.04,270.335 1530.39,279.528C1516.06,288.516 1515.39,300.315 1519.46,317.453C1532.92,315.22 1546.45,313.363 1559.8,310.661C1575.09,307.568 1590.47,304.528 1605.35,299.955C1617.28,296.286 1627.94,289.376 1632.13,276.522C1636.19,264.075 1636.15,251.329 1632.42,238.656C1628.89,226.639 1621.33,217.129 1613.34,207.953C1591.01,182.343 1568.53,156.892 1548.85,129.108C1538.84,114.982 1528.27,101.25 1515.15,89.698C1500.94,77.183 1485.29,68.014 1465.79,67.216C1439.15,66.125 1418.74,78.147 1402.18,97.878C1388.83,113.788 1376.21,130.354 1362.37,145.82C1343.09,167.361 1323.14,188.32 1303.12,209.184C1292.79,219.949 1283.93,231.455 1281.43,246.458C1278.73,262.667 1280.1,278.209 1293.85,289.724C1301.48,296.115 1310.74,299.436 1320.3,302.01C1346.5,309.068 1373.56,309.96 1400.29,313.148C1401.42,313.281 1402.73,311.779 1404.38,310.834M1535.16,467.515C1533.37,460.952 1531.85,454.301 1529.75,447.841C1520.53,419.568 1510.31,391.625 1505.15,362.149C1499.69,330.983 1494.95,299.784 1494.9,268.049C1494.9,266.291 1494.75,264.534 1494.66,262.793L1426.82,262.793C1426.16,276.072 1425.8,289.015 1424.81,301.91C1422.53,331.632 1419.15,361.215 1409.8,389.718C1402.29,412.585 1394.26,435.28 1386.79,458.161C1381.62,474.012 1377.78,490.216 1378.67,507.072C1379.48,522.247 1383.32,536.399 1395.08,547.088C1403.41,554.667 1412.94,560.502 1423.74,563.797C1448,571.204 1472.36,570.897 1496.39,562.895C1526.5,552.872 1541.14,531.184 1539.26,499.455C1538.64,489.033 1536.74,478.686 1535.16,467.515M1533.76,263.193C1535.18,262.478 1536.6,261.764 1538.03,261.049C1537.93,260.5 1537.84,259.95 1537.74,259.401C1529.44,258.225 1521.29,259.723 1512.85,261.635C1513.2,266.776 1513.53,271.498 1513.83,275.919C1520.4,271.708 1526.75,267.634 1533.76,263.193M1535.7,295.577C1535.99,295.304 1536.28,295.033 1536.55,294.744C1536.55,294.737 1536.33,294.521 1536.22,294.403C1535.93,294.676 1535.65,294.949 1535.7,295.577Z" style="fill:white;fill-rule:nonzero;"/>
            <path d="M1536.23,290.268C1537.75,289.302 1539.49,288.583 1541.6,287.89C1540.13,288.783 1538.29,289.649 1536.23,290.268Z" style="fill:white;fill-rule:nonzero;"/>
            <path d="M1533.01,298.445C1532.57,298.899 1532.12,299.005 1531.34,299.043C1530.96,297.856 1530.93,296.738 1530.89,295.62C1531.6,296.445 1532.31,297.27 1533.01,298.445Z" style="fill:white;fill-rule:nonzero;"/>
            <path d="M1560.16,283.259C1560.51,282.854 1561,282.661 1561.76,282.482C1561.45,282.821 1560.88,283.146 1560.16,283.259Z" style="fill:white;fill-rule:nonzero;"/>
            <path d="M1564.17,282.291C1564.51,281.852 1565,281.623 1565.76,281.428C1565.46,281.809 1564.89,282.155 1564.17,282.291Z" style="fill:white;fill-rule:nonzero;"/>
            <path d="M1404.17,310.937C1403.89,310.513 1403.82,309.986 1403.91,309.236C1404.17,309.62 1404.27,310.227 1404.17,310.937Z" style="fill:white;fill-rule:nonzero;"/>
            <path d="M1552.16,285.24C1552.49,284.746 1552.97,284.474 1553.74,284.241C1553.45,284.673 1552.88,285.067 1552.16,285.24Z" style="fill:white;fill-rule:nonzero;"/>
            <path d="M1535.53,295.4C1535.65,294.949 1535.93,294.676 1536.22,294.403C1536.33,294.521 1536.55,294.737 1536.55,294.744C1536.28,295.033 1535.99,295.304 1535.53,295.4Z" style="fill:white;fill-rule:nonzero;"/>
            <path d="M1524.65,299.356C1524.29,299.505 1523.58,299.198 1523.05,298.663C1523.59,298.59 1523.94,298.744 1524.65,299.356Z" style="fill:white;fill-rule:nonzero;"/>
            <path d="M1403.95,297.307C1403.98,297.275 1404.04,297.412 1403.97,297.454C1403.9,297.495 1403.93,297.34 1403.95,297.307Z" style="fill:white;fill-rule:nonzero;"/>
            <path d="M1401.91,293.214C1401.93,293.177 1401.96,293.352 1401.92,293.382C1401.88,293.412 1401.89,293.251 1401.91,293.214Z" style="fill:white;fill-rule:nonzero;"/>
            <path d="M1405.21,283.836C1405.33,283.562 1405.54,283.567 1405.84,283.877C1405.92,284.029 1405.61,284.075 1405.61,284.075C1405.61,284.075 1405.31,283.961 1405.21,283.836Z" style="fill:white;fill-rule:nonzero;"/>
            <path d="M1596.26,277.054C1596.19,276.811 1596.32,276.68 1596.65,276.766C1596.75,276.881 1596.36,277.064 1596.26,277.054Z" style="fill:white;fill-rule:nonzero;"/>
        </g>
    </g>
</svg>
