<?xml version="1.0" encoding="UTF-8" standalone="no"?>
<!DOCTYPE svg PUBLIC "-//W3C//DTD SVG 1.1//EN" "http://www.w3.org/Graphics/SVG/1.1/DTD/svg11.dtd">
<svg width="100%" height="100%" viewBox="0 0 395 542" version="1.1" xmlns="http://www.w3.org/2000/svg" xmlns:xlink="http://www.w3.org/1999/xlink" xml:space="preserve" xmlns:serif="http://www.serif.com/" style="fill-rule:evenodd;clip-rule:evenodd;stroke-linejoin:round;stroke-miterlimit:2;">
    <g transform="matrix(1,0,0,1,82.4021,-47.0217)">
        <g transform="matrix(1,0,0,1,-1342.48,0)">
            <rect x="1260.08" y="47.022" width="394.511" height="541.489" style="fill:none;"/>
            <g transform="matrix(1,0,0,1,1342.48,0)">
                <path d="M118.777,577.489C109.515,576.1 100.187,576.056 92.024,572.951C75.598,566.704 67.862,550.95 71.636,532.049C73.994,520.239 78.507,508.869 81.828,497.238C84.868,486.591 87.606,475.858 90.484,465.139C78.84,463.361 68.209,461.897 57.648,460.038C53.936,459.385 50.274,458.041 46.794,456.539C25.849,447.5 24.718,423.252 38.738,407.82C44.659,401.302 51.034,395.193 56.88,388.611C65.697,378.684 74.607,368.801 82.807,358.373C100.042,336.454 130.285,334.089 151.596,359.103C165.513,375.438 178.936,392.216 192.007,409.236C195.619,413.94 198.15,419.996 199.486,425.82C202.68,439.745 196.082,452.4 182.526,456.811C171.568,460.377 159.922,461.844 148.563,464.156C146.651,464.545 144.649,464.497 142.25,464.685C143.773,478.66 147.742,491.589 151.709,504.586C154.797,514.703 157.88,525.048 158.974,535.5C161.184,556.608 150.668,570.55 130.065,575.821C126.548,576.721 122.852,576.923 118.777,577.489M89.638,456.218C91.383,452.103 91.487,447.948 87.526,445.329C82.487,441.997 77.215,438.727 71.595,436.643C65.758,434.478 59.64,435.727 53.94,438.981C58.507,440.43 63.121,441.326 67.756,442.104C75.46,443.396 83.226,444.493 88.081,450.741C83.138,450.088 78.164,449.614 73.26,448.742C65.757,447.409 58.22,446.111 50.881,444.119C48.745,443.54 45.814,440.654 45.807,438.815C45.798,436.593 48.034,433.521 50.151,432.319C53.835,430.228 58.068,428.712 62.252,427.959C92.947,422.43 123.847,422.039 154.733,425.755C162.852,426.731 170.848,429.539 178.592,432.352C181.033,433.239 184.04,436.972 183.911,439.239C183.791,441.344 180.094,444.465 177.526,445C166.599,447.277 155.507,448.76 144.475,450.532C144.363,449.989 144.251,449.446 144.139,448.903C153.256,442.273 164.544,442.091 175.106,439.075C173.572,437.86 172.043,436.967 170.393,436.51C163.404,434.571 156.851,436.445 150.522,439.24C141.235,443.339 139.683,446.434 141.383,457.806C153.591,455.523 165.957,453.927 177.905,450.754C187.792,448.127 193.623,437.939 190.983,427.966C189.259,421.452 185.668,415.048 181.552,409.629C172.408,397.589 162.616,386.018 152.682,374.609C146.611,367.638 140.466,360.416 133.143,354.922C121.783,346.4 104.326,348.581 94.834,358.852C78.145,376.91 61.475,394.999 45.295,413.511C32.993,427.585 35.465,448.326 58.359,451.867C68.543,453.442 78.785,454.64 89.638,456.218M96.45,479.002C93.466,488.685 90.216,498.296 87.571,508.071C84.722,518.599 81.354,529.164 80.193,539.927C78.836,552.503 86.316,562.232 98.247,565.973C108.433,569.167 118.886,569.646 129.251,566.792C143.598,562.843 150.777,553.523 149.916,538.631C149.461,530.756 148.239,522.603 145.55,515.238C137.033,491.916 132.132,468.005 131.237,443.232C131.131,440.3 130.979,437.369 130.843,434.327L101.999,434.327C100.178,449.216 98.407,463.694 96.45,479.002M86.305,432.919L77.264,432.919C77.184,433.419 77.105,433.918 77.026,434.418C81.75,437.249 86.474,440.08 91.629,443.171C91.629,440.996 91.6,439.096 91.636,437.197C91.694,434.16 90.541,432.413 86.305,432.919M144.105,436.436C147.201,435.094 150.297,433.752 154.56,431.904C148.355,432.301 143.397,432.618 138.189,432.951C138.314,435.735 138.404,437.748 138.523,440.393C140.604,438.909 142.043,437.883 144.105,436.436Z" style="fill:white;fill-rule:nonzero;"/>
            </g>
        </g>
    </g>
</svg>
