<?xml version="1.0" encoding="UTF-8" standalone="no"?>
<!DOCTYPE svg PUBLIC "-//W3C//DTD SVG 1.1//EN" "http://www.w3.org/Graphics/SVG/1.1/DTD/svg11.dtd">
<svg width="100%" height="100%" viewBox="0 0 395 542" version="1.1" xmlns="http://www.w3.org/2000/svg" xmlns:xlink="http://www.w3.org/1999/xlink" xml:space="preserve" xmlns:serif="http://www.serif.com/" style="fill-rule:evenodd;clip-rule:evenodd;stroke-linejoin:round;stroke-miterlimit:2;">
    <g transform="matrix(1,0,0,1,-160.696,-47.0217)">
        <g transform="matrix(1,0,0,1,-1099.38,0)">
            <rect x="1260.08" y="47.022" width="394.511" height="541.489" style="fill:none;"/>
            <g transform="matrix(1,0,0,1,1099.38,0)">
                <path d="M405.4,482.442C409.992,497.428 415.283,511.816 415.276,527.441C415.266,549.196 406.216,564.351 387.887,571.947C374.018,577.694 359.549,578.809 344.788,576.464C334.936,574.898 325.737,571.584 317.914,565.253C306.421,555.951 302.265,543.341 302.187,529.02C302.095,512.183 308.519,496.989 313.712,481.391C318.362,467.425 321.786,453.048 325.609,438.814C326.197,436.624 326.024,434.23 326.222,431.684C316.259,430.468 306.507,429.656 296.902,427.995C288.249,426.499 279.502,424.8 271.244,421.912C250.384,414.619 241.196,394.393 249.9,374.07C253.294,366.146 258.569,358.758 264.141,352.09C278.401,335.026 293.296,318.492 307.962,301.767C316.942,291.526 325.535,280.943 338.585,275.265C358.163,266.747 376.47,269.283 393.057,281.96C400.367,287.545 406.721,294.624 412.626,301.756C426.621,318.66 439.823,336.221 453.86,353.088C463.586,364.776 470.439,377.178 469.108,392.933C468.063,405.302 461.544,414.173 450.964,419.877C437.222,427.287 421.902,429.085 406.705,431.032C402.439,431.578 398.134,431.821 393.434,432.239C395.426,449.38 399.824,465.841 405.4,482.442M406.151,389.95L389.741,389.95C389.555,394.12 389.43,396.941 389.327,399.257C395.512,396.243 401.058,393.541 407.218,390.925C407.644,390.497 408.07,390.068 408.496,389.639C408.027,389.705 407.558,389.771 406.151,389.95M441.193,355.32C432.858,345.364 424.401,335.507 416.226,325.421C409.323,316.906 403.102,307.819 395.942,299.535C385.497,287.45 372.326,280.627 355.905,282.008C340.993,283.262 330.818,292.469 321.629,303.169C306.247,321.079 290.912,339.029 275.389,356.816C269.255,363.846 262.663,370.46 259.787,379.695C255.04,394.937 260.921,407.616 275.798,412.894C292.311,418.752 309.732,418.599 326.81,420.297C328.322,413.975 327.433,410.65 323.603,406.83C317.361,400.605 309.24,397.989 301.269,395.052C293.335,392.129 286.57,395.786 279.556,398.697C294.678,404.001 312.603,400.839 324.914,414.211C312.677,412.67 300.635,411.33 288.658,409.559C283.928,408.859 279.038,407.819 274.797,405.753C272.014,404.397 268.659,401.017 268.507,398.374C268.361,395.823 271.437,391.872 274.083,390.622C280.177,387.743 286.725,385.306 293.344,384.136C335.866,376.616 378.55,376.8 421.139,383.327C428.977,384.528 436.915,387.743 443.801,391.755C451.098,396.007 449.797,404.016 441.595,405.975C429.998,408.744 418.071,410.155 406.263,412.009C402.518,412.598 398.705,412.748 394.923,413.098C394.847,412.641 394.77,412.183 394.694,411.725C407.331,402.311 423.231,402.92 437.997,398.784C426.555,391.503 405.681,394.006 396.542,402.826C390.42,408.734 391.547,415.657 392.135,422.923C399.043,421.871 405.824,421.196 412.436,419.748C422.954,417.446 433.524,415.145 443.758,411.862C451.525,409.37 456.275,403.28 457.636,394.986C458.828,387.724 458.488,380.515 454.551,374.165C450.623,367.83 445.997,361.928 441.193,355.32M403.278,530.435C402.938,524.961 403.385,519.294 402.098,514.052C399.29,502.622 395.725,491.37 392.244,480.114C383.737,452.604 378.911,424.524 378.89,395.686C378.888,392.9 378.079,391.989 375.132,392.044C364.805,392.235 354.473,392.077 344.142,392.086C343.044,392.087 341.947,392.318 340.534,392.478C340.534,394.418 340.555,396.065 340.531,397.711C340.214,419.408 338.226,440.918 332.065,461.805C328.227,474.814 323.681,487.614 319.456,500.509C315.486,512.624 312.537,524.919 314.785,537.758C316.268,546.231 319.938,553.666 327.718,558.158C346.588,569.05 366.093,569.202 385.538,560.208C397.462,554.693 403.406,544.724 403.278,530.435M309.964,391.194C310.571,391.846 311.06,392.723 311.805,393.112C315.301,394.934 318.966,396.453 322.373,398.421C324.533,399.669 326.347,401.516 328.723,403.42C328.723,401.631 328.725,400.661 328.722,399.69C328.703,392.484 327.334,391.064 320.274,390.977C317.13,390.938 313.986,390.945 309.964,391.194Z" style="fill:white;fill-rule:nonzero;"/>
                <path d="M406.911,390.882C406.626,390.644 406.649,390.449 406.88,390.045C407.558,389.771 408.027,389.705 408.496,389.639C408.07,390.068 407.644,390.497 406.911,390.882Z" style="fill:white;fill-rule:nonzero;"/>
            </g>
        </g>
    </g>
</svg>
